<?xml version="1.0" encoding="UTF-8"?><svg id="Layer_2" xmlns="http://www.w3.org/2000/svg" viewBox="0 0 50 45.82"><defs><style>.cls-1{fill:#fff;fill-rule:evenodd;stroke-width:0px;}</style></defs><g id="Layer_1-2"><path class="cls-1" d="M17.83,8.05h29.47l-17.5,12-11.9-8.16c.45-1.21.46-2.59-.06-3.84h0ZM10.12,14.44l4.3-2.62c1.27-.78,1.7-2.43.95-3.72l-3.88-6.72c-.4-.69-1-1.13-1.78-1.31-.78-.18-1.51-.03-2.17.42L.48,5.36c-3.37,11.86,11.76,37.54,23.36,40.46l7.75-3.69c.72-.34,1.21-.91,1.44-1.67s.15-1.5-.24-2.19l-3.88-6.72c-.75-1.29-2.39-1.75-3.7-1.04l-4.41,2.41c-4.36-3.88-9.5-12.78-10.68-18.5h0ZM49.94,8.84l-18.94,12.99c-.44.3-1.01.28-1.42-.02l-12.58-8.62c-.24.21-.5.41-.78.58l-2.72,1.65c1.43,4.61,4.96,10.72,8.23,14.26l2.79-1.53c2.5-1.36,5.63-.49,7.05,1.98l2.4,4.17h14.01c1.11,0,2.01-.9,2.01-2.01V9.31c0-.16-.02-.32-.06-.47h0Z"/></g></svg>