<?xml version="1.0" encoding="utf-8"?>
<!-- Generator: Adobe Illustrator 28.3.0, SVG Export Plug-In . SVG Version: 6.00 Build 0)  -->
<svg version="1.1" id="Layer_1" xmlns="http://www.w3.org/2000/svg" xmlns:xlink="http://www.w3.org/1999/xlink" x="0px" y="0px"
	 viewBox="0 0 800 800" style="enable-background:new 0 0 800 800;" xml:space="preserve">
<style type="text/css">
	.st0{fill-rule:evenodd;clip-rule:evenodd;fill:url(#SVGID_1_);}
	.st1{fill-rule:evenodd;clip-rule:evenodd;fill:url(#SVGID_00000150089875148384292090000014775333654701400497_);}
	
		.st2{fill-rule:evenodd;clip-rule:evenodd;fill:url(#SVGID_00000010996426930438501670000007572585824240902050_);filter:url(#Adobe_OpacityMaskFilter);}
	.st3{mask:url(#id0_1_);fill-rule:evenodd;clip-rule:evenodd;fill:#ECF955;}
	.st4{fill-rule:evenodd;clip-rule:evenodd;fill:url(#SVGID_00000114796540354957009570000005753139968823392398_);}
	
		.st5{fill-rule:evenodd;clip-rule:evenodd;fill:url(#SVGID_00000063592837187702194710000007188326456221497989_);filter:url(#Adobe_OpacityMaskFilter_00000009565986819411739070000004780162477812746661_);}
	.st6{mask:url(#id2_1_);fill-rule:evenodd;clip-rule:evenodd;fill:#008B80;}
	
		.st7{fill-rule:evenodd;clip-rule:evenodd;fill:url(#SVGID_00000148644934817662314000000002585712169962654361_);filter:url(#Adobe_OpacityMaskFilter_00000169560186776696283850000015418909725812645003_);}
	.st8{mask:url(#id4_1_);fill-rule:evenodd;clip-rule:evenodd;fill:#008B80;}
	
		.st9{fill-rule:evenodd;clip-rule:evenodd;fill:url(#SVGID_00000123434146104990839410000001517258854221925288_);filter:url(#Adobe_OpacityMaskFilter_00000139287286641079739480000004074273004483685311_);}
	.st10{mask:url(#id6_1_);fill-rule:evenodd;clip-rule:evenodd;fill:#008B80;}
	
		.st11{fill-rule:evenodd;clip-rule:evenodd;fill:url(#SVGID_00000060012068573012714240000008320480323224742530_);filter:url(#Adobe_OpacityMaskFilter_00000000184423015312709860000006594658180723746990_);}
	.st12{mask:url(#id8_1_);fill-rule:evenodd;clip-rule:evenodd;fill:#003780;}
	
		.st13{fill-rule:evenodd;clip-rule:evenodd;fill:url(#SVGID_00000003090395844212748000000009600279421771845006_);filter:url(#Adobe_OpacityMaskFilter_00000050662330765692106350000018378841638242755002_);}
	.st14{mask:url(#id10_1_);fill-rule:evenodd;clip-rule:evenodd;fill:#002223;}
	.st15{fill-rule:evenodd;clip-rule:evenodd;fill:url(#SVGID_00000159472424762033652090000016937799217131602356_);}
	
		.st16{fill-rule:evenodd;clip-rule:evenodd;fill:url(#SVGID_00000036930160017032796290000015663081286184701086_);filter:url(#Adobe_OpacityMaskFilter_00000128468634575799207220000003606201364946783133_);}
	.st17{mask:url(#id12_1_);fill-rule:evenodd;clip-rule:evenodd;fill:#FFFFFF;}
	
		.st18{fill-rule:evenodd;clip-rule:evenodd;fill:url(#SVGID_00000076586425571371782060000000255530674810382979_);filter:url(#Adobe_OpacityMaskFilter_00000178909481159166968100000006645390971453758355_);}
	.st19{mask:url(#id14_1_);fill-rule:evenodd;clip-rule:evenodd;fill:#005B50;}
	.st20{fill-rule:evenodd;clip-rule:evenodd;fill:url(#SVGID_00000151543842662517601620000013821018999313062545_);}
	
		.st21{fill-rule:evenodd;clip-rule:evenodd;fill:url(#SVGID_00000050649590793388895980000005377023188207899799_);filter:url(#Adobe_OpacityMaskFilter_00000014609446741494784010000014952712897351086210_);}
	.st22{mask:url(#id16_1_);fill-rule:evenodd;clip-rule:evenodd;fill:#FFFFFF;}
	
		.st23{fill-rule:evenodd;clip-rule:evenodd;fill:url(#SVGID_00000106106454216998852610000004079851572869157529_);filter:url(#Adobe_OpacityMaskFilter_00000060021551685303074720000017871875800055176346_);}
	.st24{mask:url(#id18_1_);fill-rule:evenodd;clip-rule:evenodd;fill:#005B50;}
	.st25{fill-rule:evenodd;clip-rule:evenodd;fill:url(#SVGID_00000124845506273982850500000013627679415334185896_);}
	
		.st26{fill-rule:evenodd;clip-rule:evenodd;fill:url(#SVGID_00000178192910870207610520000000291605083058416547_);filter:url(#Adobe_OpacityMaskFilter_00000167372538737337782750000000176566055753647774_);}
	.st27{mask:url(#id20_1_);fill-rule:evenodd;clip-rule:evenodd;fill:#FFFFFF;}
	
		.st28{fill-rule:evenodd;clip-rule:evenodd;fill:url(#SVGID_00000009571449381914588440000007498357706475165601_);filter:url(#Adobe_OpacityMaskFilter_00000072266051665983387620000010225186773290461317_);}
	.st29{mask:url(#id22_1_);fill-rule:evenodd;clip-rule:evenodd;fill:#39D5FF;}
	
		.st30{fill-rule:evenodd;clip-rule:evenodd;fill:url(#SVGID_00000006683728459342885190000006107420804448971668_);filter:url(#Adobe_OpacityMaskFilter_00000010299623747236561680000011168317612695982999_);}
	.st31{mask:url(#id24_1_);fill-rule:evenodd;clip-rule:evenodd;fill:#39D5FF;}
	
		.st32{fill-rule:evenodd;clip-rule:evenodd;fill:url(#SVGID_00000135655264604668863430000017143473603409957543_);filter:url(#Adobe_OpacityMaskFilter_00000049935997246482344720000015148339874679400122_);}
	.st33{mask:url(#id26_1_);fill-rule:evenodd;clip-rule:evenodd;fill:#ECF955;}
</style>
<g id="Ident">
	
		<linearGradient id="SVGID_1_" gradientUnits="userSpaceOnUse" x1="331.3502" y1="1124.5051" x2="336.7038" y2="1582.999" gradientTransform="matrix(1.0602 0 0 -1.0602 47.4191 1750.9656)">
		<stop  offset="0" style="stop-color:#008B80"/>
		<stop  offset="1" style="stop-color:#19B5FE"/>
	</linearGradient>
	<path class="st0" d="M400,50c37.8,0,232.5,271.1,232.5,399.5S528.4,681.9,400,681.9S167.6,577.9,167.6,449.5S362.2,50,400,50
		L400,50z"/>
	
		<linearGradient id="SVGID_00000146458057726147529100000003666298172740938413_" gradientUnits="userSpaceOnUse" x1="344.4377" y1="1024.2948" x2="71.0682" y2="1531.2223" gradientTransform="matrix(1.0602 0 0 -1.0602 47.4191 1750.9656)">
		<stop  offset="0" style="stop-color:#27CBC0"/>
		<stop  offset="1" style="stop-color:#ECF955"/>
	</linearGradient>
	<path style="fill-rule:evenodd;clip-rule:evenodd;fill:url(#SVGID_00000146458057726147529100000003666298172740938413_);" d="
		M523.6,634.5c0-264.5-298.5-127.1-290.1-372.1c-37.4,67.8-65.9,137.9-65.9,187.1c0,12.8,1,25.3,3,37.6
		c18,110.5,113.8,194.9,229.4,194.9c15.4,0,30.4-1.5,44.9-4.3c-56.5-8.3-234.6-56.7-187.5-241.7c66,109,281.7,16.8,231.1,314.1
		c0,0,29.2-43.8,34.8-103.4C523.5,642.6,523.6,638.6,523.6,634.5L523.6,634.5z"/>
	<defs>
		<filter id="Adobe_OpacityMaskFilter" filterUnits="userSpaceOnUse" x="170.4" y="262.4" width="225" height="186.9">
			<feColorMatrix  type="matrix" values="1 0 0 0 0  0 1 0 0 0  0 0 1 0 0  0 0 0 1 0"/>
		</filter>
	</defs>
	<mask maskUnits="userSpaceOnUse" x="170.4" y="262.4" width="225" height="186.9" id="id0_1_">
		
			<linearGradient id="SVGID_00000163050692711158432170000018296183082181282999_" gradientUnits="userSpaceOnUse" x1="227.6045" y1="1324.1226" x2="181.2437" y2="1255.0044" gradientTransform="matrix(1.0602 0 0 -1.0602 47.4191 1750.9656)">
			<stop  offset="0" style="stop-color:#FFFFFF"/>
			<stop  offset="1" style="stop-color:#FFFFFF;stop-opacity:0"/>
		</linearGradient>
		
			<rect x="170.4" y="262.4" style="fill-rule:evenodd;clip-rule:evenodd;fill:url(#SVGID_00000163050692711158432170000018296183082181282999_);filter:url(#Adobe_OpacityMaskFilter);" width="225" height="186.9"/>
	</mask>
	<path class="st3" d="M395.4,449.3c-79.8-33.4-166.5-53.3-161.9-186.9c-30.4,55.2-55,112-63.1,157.8c10.4-42.5,32.7-92.4,59.6-141.1
		C226,395.2,308,430.2,395.4,449.3L395.4,449.3z"/>
	
		<linearGradient id="SVGID_00000176022253571830078060000018017876071487496334_" gradientUnits="userSpaceOnUse" x1="236.9133" y1="1224.2186" x2="451.4057" y2="871.1527" gradientTransform="matrix(1.0602 0 0 -1.0602 47.4191 1750.9656)">
		<stop  offset="0" style="stop-color:#FFFFFF"/>
		<stop  offset="1" style="stop-color:#37DBD0"/>
	</linearGradient>
	<path style="fill-rule:evenodd;clip-rule:evenodd;fill:url(#SVGID_00000176022253571830078060000018017876071487496334_);" d="
		M495.9,661.3c-5-189.9-180.3-129.1-238.6-225.4c-47.1,185,131,233.5,187.5,241.7l0,0l0,0c0.7,0,46.4,3.5,47.6,44.5
		C495.3,699.4,496.4,679.2,495.9,661.3L495.9,661.3z"/>
	<defs>
		
			<filter id="Adobe_OpacityMaskFilter_00000156576296454345930850000017032950353356939678_" filterUnits="userSpaceOnUse" x="361" y="565.1" width="130.8" height="150.2">
			<feColorMatrix  type="matrix" values="1 0 0 0 0  0 1 0 0 0  0 0 1 0 0  0 0 0 1 0"/>
		</filter>
	</defs>
	<mask maskUnits="userSpaceOnUse" x="361" y="565.1" width="130.8" height="150.2" id="id2_1_">
		
			<linearGradient id="SVGID_00000112618938770998760510000005099537203692569234_" gradientUnits="userSpaceOnUse" x1="495.9356" y1="853.5411" x2="269.9878" y2="1170.3586" gradientTransform="matrix(1.0602 0 0 -1.0602 47.4191 1750.9656)">
			<stop  offset="0" style="stop-color:#FFFFFF"/>
			<stop  offset="1" style="stop-color:#FFFFFF;stop-opacity:0"/>
		</linearGradient>
		
			<rect x="361" y="565.1" style="fill-rule:evenodd;clip-rule:evenodd;fill:url(#SVGID_00000112618938770998760510000005099537203692569234_);filter:url(#Adobe_OpacityMaskFilter_00000156576296454345930850000017032950353356939678_);" width="130.8" height="150.2"/>
	</mask>
	<path class="st6" d="M361,565.1c89.4,110.8,3.3,88.9,3.3,88.9c31.7,14.1,62.4,20.9,80.6,23.6c0,0,0,0,0,0c0.6,0,41.1,3.1,47,37.7
		c-2.1-17.8-6.6-33.3-13.1-47C455.3,618.4,406.7,592.3,361,565.1L361,565.1z"/>
	<defs>
		
			<filter id="Adobe_OpacityMaskFilter_00000040537796928505954040000003817530428006558633_" filterUnits="userSpaceOnUse" x="246.8" y="561" width="198" height="120.9">
			<feColorMatrix  type="matrix" values="1 0 0 0 0  0 1 0 0 0  0 0 1 0 0  0 0 0 1 0"/>
		</filter>
	</defs>
	<mask maskUnits="userSpaceOnUse" x="246.8" y="561" width="198" height="120.9" id="id4_1_">
		
			<linearGradient id="SVGID_00000108278960888952783350000009544193563409536429_" gradientUnits="userSpaceOnUse" x1="246.0288" y1="908.6895" x2="314.362" y2="1210.501" gradientTransform="matrix(1.0602 0 0 -1.0602 47.4191 1750.9656)">
			<stop  offset="0" style="stop-color:#FFFFFF"/>
			<stop  offset="1" style="stop-color:#FFFFFF;stop-opacity:0"/>
		</linearGradient>
		
			<rect x="246.8" y="561" style="fill-rule:evenodd;clip-rule:evenodd;fill:url(#SVGID_00000108278960888952783350000009544193563409536429_);filter:url(#Adobe_OpacityMaskFilter_00000040537796928505954040000003817530428006558633_);" width="198" height="120.9"/>
	</mask>
	<path class="st8" d="M324.8,647.7c-38.2-5.2-64.5-16.4-77.9-23.4c40.9,35.9,94.5,57.6,153.1,57.6c15.4,0,30.4-1.5,44.9-4.3
		c-40.7-6-144.6-32.8-181.9-116.6C276.5,622.2,324.8,647.7,324.8,647.7z"/>
	<defs>
		
			<filter id="Adobe_OpacityMaskFilter_00000173135198153723460210000005194936868663923389_" filterUnits="userSpaceOnUse" x="467.3" y="562.7" width="56.3" height="187.3">
			<feColorMatrix  type="matrix" values="1 0 0 0 0  0 1 0 0 0  0 0 1 0 0  0 0 0 1 0"/>
		</filter>
	</defs>
	<mask maskUnits="userSpaceOnUse" x="467.3" y="562.7" width="56.3" height="187.3" id="id6_1_">
		
			<linearGradient id="SVGID_00000039832886401125889340000003403804614984056460_" gradientUnits="userSpaceOnUse" x1="387.299" y1="876.7045" x2="455.6322" y2="1178.516" gradientTransform="matrix(1.0602 0 0 -1.0602 47.4191 1750.9656)">
			<stop  offset="0" style="stop-color:#FFFFFF"/>
			<stop  offset="1" style="stop-color:#FFFFFF;stop-opacity:0"/>
		</linearGradient>
		
			<rect x="467.3" y="562.7" style="fill-rule:evenodd;clip-rule:evenodd;fill:url(#SVGID_00000039832886401125889340000003403804614984056460_);filter:url(#Adobe_OpacityMaskFilter_00000173135198153723460210000005194936868663923389_);" width="56.3" height="187.3"/>
	</mask>
	<path class="st10" d="M467.3,562.7c25.8,34.6,37.7,90.1,21.1,187.3c0,0,29.2-43.8,34.8-103.4c0.2-4,0.4-8.1,0.4-12.1
		c0-26-2.9-48-8.1-67c7.1,31.5-4.3,86.2-4.3,86.2C508.1,615.7,467.3,562.7,467.3,562.7L467.3,562.7z"/>
	<defs>
		
			<filter id="Adobe_OpacityMaskFilter_00000072259776569750544110000010569913909527624357_" filterUnits="userSpaceOnUse" x="233.3" y="262.4" width="399.1" height="384.2">
			<feColorMatrix  type="matrix" values="1 0 0 0 0  0 1 0 0 0  0 0 1 0 0  0 0 0 1 0"/>
		</filter>
	</defs>
	<mask maskUnits="userSpaceOnUse" x="233.3" y="262.4" width="399.1" height="384.2" id="id8_1_">
		
			<linearGradient id="SVGID_00000097482648792348121840000011916771771078010803_" gradientUnits="userSpaceOnUse" x1="504.9363" y1="955.383" x2="270.7099" y2="1398.4418" gradientTransform="matrix(1.0602 0 0 -1.0602 47.4191 1750.9656)">
			<stop  offset="0" style="stop-color:#FFFFFF"/>
			<stop  offset="1" style="stop-color:#FFFFFF;stop-opacity:0"/>
		</linearGradient>
		
			<rect x="233.3" y="262.4" style="fill-rule:evenodd;clip-rule:evenodd;fill:url(#SVGID_00000097482648792348121840000011916771771078010803_);filter:url(#Adobe_OpacityMaskFilter_00000072259776569750544110000010569913909527624357_);" width="399.1" height="384.2"/>
	</mask>
	<path class="st12" d="M455.5,481c26.9,19.2,48.8,45.6,60,86.5c5.2,19,8.1,41,8.1,67c0,4.1-0.1,8.1-0.4,12.1
		c65.6-41.1,109.2-114,109.2-197.1c0-5.1-0.3-10.5-0.9-16c-7.4,92.4-76.1,131-76.1,131c-1-63.5-40.4-100.8-91.3-129.1
		c-93.5-52.1-225.9-73.9-230.7-173c-3.2,94.8,39.5,132.4,93.1,158.1C368.5,440.6,417.1,453.6,455.5,481L455.5,481z"/>
	<defs>
		
			<filter id="Adobe_OpacityMaskFilter_00000175311946232452143580000002742989547448340112_" filterUnits="userSpaceOnUse" x="545.5" y="378" width="32.8" height="44.6">
			<feColorMatrix  type="matrix" values="1 0 0 0 0  0 1 0 0 0  0 0 1 0 0  0 0 0 1 0"/>
		</filter>
	</defs>
	<mask maskUnits="userSpaceOnUse" x="545.5" y="378" width="32.8" height="44.6" id="id10_1_">
		
			<linearGradient id="SVGID_00000116222579290372607670000016310553344762980271_" gradientUnits="userSpaceOnUse" x1="479.0221" y1="1261.3322" x2="493.4394" y2="1290.5469" gradientTransform="matrix(1.0602 0 0 -1.0602 47.4191 1750.9656)">
			<stop  offset="0" style="stop-color:#FFFFFF"/>
			<stop  offset="1" style="stop-color:#FFFFFF;stop-opacity:0"/>
		</linearGradient>
		
			<rect x="545.5" y="378" style="fill-rule:evenodd;clip-rule:evenodd;fill:url(#SVGID_00000116222579290372607670000016310553344762980271_);filter:url(#Adobe_OpacityMaskFilter_00000175311946232452143580000002742989547448340112_);" width="32.8" height="44.6"/>
	</mask>
	<path class="st14" d="M561.9,378c2.7,0,16.4,19.1,16.4,28.2s-7.3,16.4-16.4,16.4c-9.1,0-16.4-7.3-16.4-16.4S559.2,378,561.9,378z"
		/>
	
		<linearGradient id="SVGID_00000125574441407939512640000009730688291529449633_" gradientUnits="userSpaceOnUse" x1="483.8143" y1="1298.8442" x2="483.8143" y2="1256.776" gradientTransform="matrix(1.0602 0 0 -1.0602 47.4191 1750.9656)">
		<stop  offset="0" style="stop-color:#004790"/>
		<stop  offset="1" style="stop-color:#19B5FE"/>
	</linearGradient>
	<path style="fill-rule:evenodd;clip-rule:evenodd;fill:url(#SVGID_00000125574441407939512640000009730688291529449633_);" d="
		M560.4,373.9c2.7,0,16.4,19.1,16.4,28.2c0,9.1-7.3,16.4-16.4,16.4c-9.1,0-16.4-7.3-16.4-16.4C544,393,557.7,373.9,560.4,373.9z"/>
	<defs>
		
			<filter id="Adobe_OpacityMaskFilter_00000042738996845874309610000013517443716348032153_" filterUnits="userSpaceOnUse" x="549.9" y="394.7" width="20.9" height="17.8">
			<feColorMatrix  type="matrix" values="1 0 0 0 0  0 1 0 0 0  0 0 1 0 0  0 0 0 1 0"/>
		</filter>
	</defs>
	<mask maskUnits="userSpaceOnUse" x="549.9" y="394.7" width="20.9" height="17.8" id="id12_1_">
		
			<linearGradient id="SVGID_00000018925837422167508820000004044605536207143836_" gradientUnits="userSpaceOnUse" x1="484.779" y1="1324.4454" x2="483.5587" y2="1256.7806" gradientTransform="matrix(1.0602 0 0 -1.0602 47.4191 1750.9656)">
			<stop  offset="0" style="stop-color:#FFFFFF"/>
			<stop  offset="1" style="stop-color:#FFFFFF;stop-opacity:0"/>
		</linearGradient>
		
			<rect x="549.9" y="394.7" style="fill-rule:evenodd;clip-rule:evenodd;fill:url(#SVGID_00000018925837422167508820000004044605536207143836_);filter:url(#Adobe_OpacityMaskFilter_00000042738996845874309610000013517443716348032153_);" width="20.9" height="17.8"/>
	</mask>
	<path class="st17" d="M552.3,394.7c-1.2,2.6-2.4,5.5-2.4,7.3c0,5.8,4.7,10.5,10.5,10.5s10.4-4.7,10.4-10.5c0-1.9-1.1-4.8-2.4-7.3
		c-2.4,1.2-5.2,1.9-8.1,1.9C557.5,396.6,554.7,396,552.3,394.7L552.3,394.7z"/>
	<defs>
		
			<filter id="Adobe_OpacityMaskFilter_00000012471619314436944050000007770423999273490623_" filterUnits="userSpaceOnUse" x="202.3" y="487.9" width="28.4" height="38.6">
			<feColorMatrix  type="matrix" values="1 0 0 0 0  0 1 0 0 0  0 0 1 0 0  0 0 0 1 0"/>
		</filter>
	</defs>
	<mask maskUnits="userSpaceOnUse" x="202.3" y="487.9" width="28.4" height="38.6" id="id14_1_">
		
			<linearGradient id="SVGID_00000044178231178813714890000018253181803408963491_" gradientUnits="userSpaceOnUse" x1="154.0965" y1="1162.2235" x2="166.5759" y2="1187.5073" gradientTransform="matrix(1.0602 0 0 -1.0602 47.4191 1750.9656)">
			<stop  offset="0" style="stop-color:#FFFFFF"/>
			<stop  offset="1" style="stop-color:#FFFFFF;stop-opacity:0"/>
		</linearGradient>
		
			<rect x="202.3" y="487.9" style="fill-rule:evenodd;clip-rule:evenodd;fill:url(#SVGID_00000044178231178813714890000018253181803408963491_);filter:url(#Adobe_OpacityMaskFilter_00000012471619314436944050000007770423999273490623_);" width="28.4" height="38.6"/>
	</mask>
	<path class="st19" d="M216.5,487.9c2.3,0,14.2,16.6,14.2,24.4s-6.4,14.2-14.2,14.2c-7.8,0-14.2-6.4-14.2-14.2
		C202.3,504.5,214.2,487.9,216.5,487.9z"/>
	
		<linearGradient id="SVGID_00000120540971016842586870000016769331987157496206_" gradientUnits="userSpaceOnUse" x1="157.2424" y1="1191.0514" x2="159.5237" y2="1146.6836" gradientTransform="matrix(1.0602 0 0 -1.0602 47.4191 1750.9656)">
		<stop  offset="0" style="stop-color:#07ABA0"/>
		<stop  offset="1" style="stop-color:#ECF955"/>
	</linearGradient>
	<path style="fill-rule:evenodd;clip-rule:evenodd;fill:url(#SVGID_00000120540971016842586870000016769331987157496206_);" d="
		M215.2,484.3c2.3,0,14.2,16.6,14.2,24.4s-6.4,14.2-14.2,14.2c-7.8,0-14.2-6.4-14.2-14.2C201,500.9,212.9,484.3,215.2,484.3z"/>
	<defs>
		
			<filter id="Adobe_OpacityMaskFilter_00000149345588133693535830000012094178962790379443_" filterUnits="userSpaceOnUse" x="206.1" y="502.4" width="18.1" height="15.4">
			<feColorMatrix  type="matrix" values="1 0 0 0 0  0 1 0 0 0  0 0 1 0 0  0 0 0 1 0"/>
		</filter>
	</defs>
	<mask maskUnits="userSpaceOnUse" x="206.1" y="502.4" width="18.1" height="15.4" id="id16_1_">
		
			<linearGradient id="SVGID_00000173139043011044471530000012446641606057379715_" gradientUnits="userSpaceOnUse" x1="159.0794" y1="1216.8459" x2="158.0246" y2="1158.2816" gradientTransform="matrix(1.0602 0 0 -1.0602 47.4191 1750.9656)">
			<stop  offset="0" style="stop-color:#FFFFFF"/>
			<stop  offset="1" style="stop-color:#FFFFFF;stop-opacity:0"/>
		</linearGradient>
		
			<rect x="206.1" y="502.4" style="fill-rule:evenodd;clip-rule:evenodd;fill:url(#SVGID_00000173139043011044471530000012446641606057379715_);filter:url(#Adobe_OpacityMaskFilter_00000149345588133693535830000012094178962790379443_);" width="18.1" height="15.4"/>
	</mask>
	<path class="st22" d="M208.2,502.4c-1.1,2.2-2.1,4.7-2.1,6.3c0,5,4.1,9,9,9c5,0,9.1-4.1,9.1-9c0-1.6-1-4.1-2.1-6.3
		c-2.1,1-4.5,1.6-7,1.6S210.3,503.4,208.2,502.4z"/>
	<defs>
		
			<filter id="Adobe_OpacityMaskFilter_00000182521764195375019530000011214685690194541239_" filterUnits="userSpaceOnUse" x="475.1" y="552.3" width="17.9" height="24.3">
			<feColorMatrix  type="matrix" values="1 0 0 0 0  0 1 0 0 0  0 0 1 0 0  0 0 0 1 0"/>
		</filter>
	</defs>
	<mask maskUnits="userSpaceOnUse" x="475.1" y="552.3" width="17.9" height="24.3" id="id18_1_">
		
			<linearGradient id="SVGID_00000046322245408173853300000014837674306473407659_" gradientUnits="userSpaceOnUse" x1="408.478" y1="1112.2351" x2="416.3397" y2="1128.167" gradientTransform="matrix(1.0602 0 0 -1.0602 47.4191 1750.9656)">
			<stop  offset="0" style="stop-color:#FFFFFF"/>
			<stop  offset="1" style="stop-color:#FFFFFF;stop-opacity:0"/>
		</linearGradient>
		
			<rect x="475.1" y="552.3" style="fill-rule:evenodd;clip-rule:evenodd;fill:url(#SVGID_00000046322245408173853300000014837674306473407659_);filter:url(#Adobe_OpacityMaskFilter_00000182521764195375019530000011214685690194541239_);" width="17.9" height="24.3"/>
	</mask>
	<path class="st24" d="M484.1,552.3c1.5,0,8.9,10.4,8.9,15.4c0,4.9-4,8.9-8.9,8.9c-4.9,0-8.9-4-8.9-8.9
		C475.1,562.7,482.6,552.3,484.1,552.3z"/>
	
		<linearGradient id="SVGID_00000109749620719240981900000006239216633307034509_" gradientUnits="userSpaceOnUse" x1="410.4551" y1="1130.3999" x2="411.8962" y2="1102.4546" gradientTransform="matrix(1.0602 0 0 -1.0602 47.4191 1750.9656)">
		<stop  offset="0" style="stop-color:#07ABA0"/>
		<stop  offset="1" style="stop-color:#ECF955"/>
	</linearGradient>
	<path style="fill-rule:evenodd;clip-rule:evenodd;fill:url(#SVGID_00000109749620719240981900000006239216633307034509_);" d="
		M483.3,550c1.5,0,8.9,10.4,8.9,15.4c0,4.9-4,8.9-8.9,8.9c-4.9,0-8.9-4-8.9-8.9C474.3,560.5,481.8,550,483.3,550z"/>
	<defs>
		
			<filter id="Adobe_OpacityMaskFilter_00000056424679728690491930000016936182734158524051_" filterUnits="userSpaceOnUse" x="477.6" y="561.4" width="11.4" height="9.7">
			<feColorMatrix  type="matrix" values="1 0 0 0 0  0 1 0 0 0  0 0 1 0 0  0 0 0 1 0"/>
		</filter>
	</defs>
	<mask maskUnits="userSpaceOnUse" x="477.6" y="561.4" width="11.4" height="9.7" id="id20_1_">
		
			<linearGradient id="SVGID_00000044168317001784448350000009080519671809419963_" gradientUnits="userSpaceOnUse" x1="411.6205" y1="1146.647" x2="410.9521" y2="1109.7607" gradientTransform="matrix(1.0602 0 0 -1.0602 47.4191 1750.9656)">
			<stop  offset="0" style="stop-color:#FFFFFF"/>
			<stop  offset="1" style="stop-color:#FFFFFF;stop-opacity:0"/>
		</linearGradient>
		
			<rect x="477.6" y="561.4" style="fill-rule:evenodd;clip-rule:evenodd;fill:url(#SVGID_00000044168317001784448350000009080519671809419963_);filter:url(#Adobe_OpacityMaskFilter_00000056424679728690491930000016936182734158524051_);" width="11.4" height="9.7"/>
	</mask>
	<path class="st27" d="M478.9,561.4c-0.7,1.4-1.3,3-1.3,4c0,3.1,2.5,5.7,5.7,5.7c3.1,0,5.7-2.5,5.7-5.7c0-1-0.6-2.6-1.3-4
		c-1.3,0.7-2.8,1-4.4,1S480.2,562.1,478.9,561.4z"/>
	<defs>
		
			<filter id="Adobe_OpacityMaskFilter_00000164474317070905169920000011712151322645488514_" filterUnits="userSpaceOnUse" x="318.2" y="50" width="314.3" height="631.9">
			<feColorMatrix  type="matrix" values="1 0 0 0 0  0 1 0 0 0  0 0 1 0 0  0 0 0 1 0"/>
		</filter>
	</defs>
	<mask maskUnits="userSpaceOnUse" x="318.2" y="50" width="314.3" height="631.9" id="id22_1_">
		
			<linearGradient id="SVGID_00000178900342021105698910000008758346352737510057_" gradientUnits="userSpaceOnUse" x1="306.9756" y1="1806.4064" x2="436.0562" y2="1138.24" gradientTransform="matrix(1.0602 0 0 -1.0602 47.4191 1750.9656)">
			<stop  offset="0" style="stop-color:#FFFFFF"/>
			<stop  offset="1" style="stop-color:#FFFFFF;stop-opacity:0"/>
		</linearGradient>
		
			<rect x="318.2" y="50" style="fill-rule:evenodd;clip-rule:evenodd;fill:url(#SVGID_00000178900342021105698910000008758346352737510057_);filter:url(#Adobe_OpacityMaskFilter_00000164474317070905169920000011712151322645488514_);" width="314.3" height="631.9"/>
	</mask>
	<path class="st29" d="M400,50c37.8,0,232.5,271.1,232.5,399.5S528.4,681.9,400,681.9c-28.8,0-56.4-5.3-81.8-14.8
		C599.1,505.1,400,50,400,50L400,50z"/>
	<defs>
		
			<filter id="Adobe_OpacityMaskFilter_00000048480002928133945670000001319100342317632184_" filterUnits="userSpaceOnUse" x="299.1" y="50" width="316.9" height="320">
			<feColorMatrix  type="matrix" values="1 0 0 0 0  0 1 0 0 0  0 0 1 0 0  0 0 0 1 0"/>
		</filter>
	</defs>
	<mask maskUnits="userSpaceOnUse" x="299.1" y="50" width="316.9" height="320" id="id24_1_">
		
			<linearGradient id="SVGID_00000095338774807577042310000002902295685658041520_" gradientUnits="userSpaceOnUse" x1="135.9362" y1="1678.676" x2="489.0022" y2="1361.6747" gradientTransform="matrix(1.0602 0 0 -1.0602 47.4191 1750.9656)">
			<stop  offset="0" style="stop-color:#FFFFFF"/>
			<stop  offset="1" style="stop-color:#FFFFFF;stop-opacity:0"/>
		</linearGradient>
		
			<rect x="299.1" y="50" style="fill-rule:evenodd;clip-rule:evenodd;fill:url(#SVGID_00000095338774807577042310000002902295685658041520_);filter:url(#Adobe_OpacityMaskFilter_00000048480002928133945670000001319100342317632184_);" width="316.9" height="320"/>
	</mask>
	<path class="st31" d="M400,50c31.1,0,168.3,183.4,216,320c-2.5-5-80.2-159.5-316.9-212.4C342.9,95.3,384.5,50,400,50L400,50z"/>
	<defs>
		
			<filter id="Adobe_OpacityMaskFilter_00000053528051560555374940000009215924030792723376_" filterUnits="userSpaceOnUse" x="167.6" y="262.4" width="159" height="276.4">
			<feColorMatrix  type="matrix" values="1 0 0 0 0  0 1 0 0 0  0 0 1 0 0  0 0 0 1 0"/>
		</filter>
	</defs>
	<mask maskUnits="userSpaceOnUse" x="167.6" y="262.4" width="159" height="276.4" id="id26_1_">
		
			<linearGradient id="SVGID_00000005976703441319532420000013060870426356443064_" gradientUnits="userSpaceOnUse" x1="143.5446" y1="1458.1331" x2="198.5951" y2="1231.2961" gradientTransform="matrix(1.0602 0 0 -1.0602 47.4191 1750.9656)">
			<stop  offset="0" style="stop-color:#FFFFFF"/>
			<stop  offset="1" style="stop-color:#FFFFFF;stop-opacity:0"/>
		</linearGradient>
		
			<rect x="167.6" y="262.4" style="fill-rule:evenodd;clip-rule:evenodd;fill:url(#SVGID_00000005976703441319532420000013060870426356443064_);filter:url(#Adobe_OpacityMaskFilter_00000053528051560555374940000009215924030792723376_);" width="159" height="276.4"/>
	</mask>
	<path class="st33" d="M185.3,538.7c0,0-21.3-86,34.1-186.6c0,0,14.2,56.3,107.2,68.4c-53.6-25.7-96.3-63.3-93.1-158.1
		c-37.4,67.8-65.9,137.9-65.9,187.1C167.6,481.1,173.9,511.3,185.3,538.7z"/>
</g>
</svg>
