<?xml version="1.0" encoding="utf-8"?>
<!-- Generator: Adobe Illustrator 28.3.0, SVG Export Plug-In . SVG Version: 6.00 Build 0)  -->
<svg version="1.1" id="Layer_1" xmlns="http://www.w3.org/2000/svg" xmlns:xlink="http://www.w3.org/1999/xlink" x="0px" y="0px"
	 viewBox="0 0 2584.6 800" style="enable-background:new 0 0 2584.6 800;" xml:space="preserve">
<style type="text/css">
	.st0{fill:#333333;}
	.st1{fill-rule:evenodd;clip-rule:evenodd;fill:url(#SVGID_1_);}
	.st2{fill-rule:evenodd;clip-rule:evenodd;fill:url(#SVGID_00000107573082546970254900000015161832271438233522_);}
	
		.st3{fill-rule:evenodd;clip-rule:evenodd;fill:url(#SVGID_00000007420291259619309390000002371541657324877493_);filter:url(#Adobe_OpacityMaskFilter);}
	.st4{mask:url(#id0_1_);fill-rule:evenodd;clip-rule:evenodd;fill:#ECF955;}
	.st5{fill-rule:evenodd;clip-rule:evenodd;fill:url(#SVGID_00000065784081699345743610000006185396911864769156_);}
	
		.st6{fill-rule:evenodd;clip-rule:evenodd;fill:url(#SVGID_00000147918083823925283390000007248216655729937063_);filter:url(#Adobe_OpacityMaskFilter_00000124865279398254547050000013244766512041536176_);}
	.st7{mask:url(#id2_1_);fill-rule:evenodd;clip-rule:evenodd;fill:#008B80;}
	
		.st8{fill-rule:evenodd;clip-rule:evenodd;fill:url(#SVGID_00000147187039929453637820000009760312725930059657_);filter:url(#Adobe_OpacityMaskFilter_00000106128837066343955600000006836750312920165248_);}
	.st9{mask:url(#id4_1_);fill-rule:evenodd;clip-rule:evenodd;fill:#008B80;}
	
		.st10{fill-rule:evenodd;clip-rule:evenodd;fill:url(#SVGID_00000114752313201507079670000004400578320882723713_);filter:url(#Adobe_OpacityMaskFilter_00000047761832799934282940000016937568228962729909_);}
	.st11{mask:url(#id6_1_);fill-rule:evenodd;clip-rule:evenodd;fill:#008B80;}
	
		.st12{fill-rule:evenodd;clip-rule:evenodd;fill:url(#SVGID_00000060019683658193887470000005649401035020822421_);filter:url(#Adobe_OpacityMaskFilter_00000121238953387151492670000015474426201951582346_);}
	.st13{mask:url(#id8_1_);fill-rule:evenodd;clip-rule:evenodd;fill:#003780;}
	
		.st14{fill-rule:evenodd;clip-rule:evenodd;fill:url(#SVGID_00000116212874306255083630000010864401564578588578_);filter:url(#Adobe_OpacityMaskFilter_00000163787940698292373850000010687465364741637298_);}
	.st15{mask:url(#id10_1_);fill-rule:evenodd;clip-rule:evenodd;fill:#002223;}
	.st16{fill-rule:evenodd;clip-rule:evenodd;fill:url(#SVGID_00000181084305791626355480000002230420966637120172_);}
	
		.st17{fill-rule:evenodd;clip-rule:evenodd;fill:url(#SVGID_00000136400315007314456070000007387363991127088319_);filter:url(#Adobe_OpacityMaskFilter_00000055692101534599605860000015502807757334773429_);}
	.st18{mask:url(#id12_1_);fill-rule:evenodd;clip-rule:evenodd;fill:#FFFFFF;}
	
		.st19{fill-rule:evenodd;clip-rule:evenodd;fill:url(#SVGID_00000059992715000806948400000004987043356912623752_);filter:url(#Adobe_OpacityMaskFilter_00000140692498004982162880000016949875619657612731_);}
	.st20{mask:url(#id14_1_);fill-rule:evenodd;clip-rule:evenodd;fill:#005B50;}
	.st21{fill-rule:evenodd;clip-rule:evenodd;fill:url(#SVGID_00000147200760576517060940000018011259927898641064_);}
	
		.st22{fill-rule:evenodd;clip-rule:evenodd;fill:url(#SVGID_00000122712999640890487460000010956083077090560926_);filter:url(#Adobe_OpacityMaskFilter_00000003068614481722158680000011513612915932385157_);}
	.st23{mask:url(#id16_1_);fill-rule:evenodd;clip-rule:evenodd;fill:#FFFFFF;}
	
		.st24{fill-rule:evenodd;clip-rule:evenodd;fill:url(#SVGID_00000033334957304326442900000006592857740622460550_);filter:url(#Adobe_OpacityMaskFilter_00000161600697434596285260000000737900674210827673_);}
	.st25{mask:url(#id18_1_);fill-rule:evenodd;clip-rule:evenodd;fill:#005B50;}
	.st26{fill-rule:evenodd;clip-rule:evenodd;fill:url(#SVGID_00000011720067533678772720000004972896464072867502_);}
	
		.st27{fill-rule:evenodd;clip-rule:evenodd;fill:url(#SVGID_00000129198274240904728550000000540934488535548837_);filter:url(#Adobe_OpacityMaskFilter_00000137823313491088059200000000529213805451809978_);}
	.st28{mask:url(#id20_1_);fill-rule:evenodd;clip-rule:evenodd;fill:#FFFFFF;}
	
		.st29{fill-rule:evenodd;clip-rule:evenodd;fill:url(#SVGID_00000070111723316004452280000017293058963181392010_);filter:url(#Adobe_OpacityMaskFilter_00000142861693857343267430000007427860429578697893_);}
	.st30{mask:url(#id22_1_);fill-rule:evenodd;clip-rule:evenodd;fill:#39D5FF;}
	
		.st31{fill-rule:evenodd;clip-rule:evenodd;fill:url(#SVGID_00000116207333790194487590000003069742878382554534_);filter:url(#Adobe_OpacityMaskFilter_00000158726721471048243720000001220816261260514490_);}
	.st32{mask:url(#id24_1_);fill-rule:evenodd;clip-rule:evenodd;fill:#39D5FF;}
	
		.st33{fill-rule:evenodd;clip-rule:evenodd;fill:url(#SVGID_00000073681275069112104710000007498764922079611573_);filter:url(#Adobe_OpacityMaskFilter_00000000188796122833713930000001611895562469438386_);}
	.st34{mask:url(#id26_1_);fill-rule:evenodd;clip-rule:evenodd;fill:#ECF955;}
</style>
<g id="Text">
	<g>
		<path class="st0" d="M707.6,346.2h-31.4l-48.5-168.2h32.9l32.9,123l34.6-123H760l34.3,123l32.6-123h32.1l-48.5,168.2H780
			l-36-125.6L707.6,346.2z"/>
		<path class="st0" d="M891.4,307.2l-14.6,38.7h-32.9l66-168.2h30.7l66,168.2H972l-14.6-38.7H891.4z M949.6,281.9L924.5,214
			l-25.3,67.9H949.6z"/>
		<path class="st0" d="M986.3,203.5v-25.6H1110v25.6h-46v142.4h-31.4V203.5H986.3z"/>
		<path class="st0" d="M1226.5,177.9v26.3h-72.1v41.6h67.9v26.1h-67.9v47.7h74v26.3h-105.7v-168H1226.5z"/>
		<path class="st0" d="M1284.1,277.7v68.2h-31.7v-168h54.1c17.8,0,31.9,3.9,42.4,11.9c10.5,8,18,20.9,18,37c0,29-15.8,40.7-36.3,47
			l45.3,72.1h-37l-39.7-68.2H1284.1z M1324.5,247.6c6.3-4.6,9.7-10.2,9.7-19.7c0-9.3-3.4-15.3-9.7-19.7c-6.1-4.6-13.9-5.4-24.1-5.4
			h-16.6v50.2h16.6C1310.6,252.9,1318.4,252.2,1324.5,247.6z"/>
		<path class="st0" d="M1486.9,348.8c-32.4,0-55.8-16.3-55.8-48.2c0-25.3,19.7-39.7,42.4-50.2c-8.3-9.5-18.7-19.7-18.7-36.8
			c0-24.3,22.2-38.7,48-38.7c27.8,0,46.7,15.3,46.7,37.3c0,19.2-13.6,30.4-33.6,43.1l27.3,31.7c5.4-5.8,16.8-23.6,21.4-32.4
			l22.6,11.9c-4.6,8-18,29.2-27,38.7l36.8,39v1.7h-36.3L1542,325C1525.9,340.3,1510.8,348.8,1486.9,348.8z M1462.6,299.2
			c0,16.1,12.2,25.3,27.5,25.3c15.1,0,28-9.3,34.8-17.8l-34.8-39.4l-6.1,3.2C1474,275.6,1462.6,283.8,1462.6,299.2z M1521,214.2
			c0-10-6.6-16.6-18-16.6c-10.7,0-18.7,5.4-18.7,16.3c0,7.8,5.4,14.1,9,18.3l6.1,6.8C1507.1,234.4,1521,227.1,1521,214.2z"/>
		<path class="st0" d="M1767.2,177.9v26.3h-72.1v41.6h67.9v26.1h-67.9v47.7h74v26.3h-105.7v-168H1767.2z"/>
		<path class="st0" d="M1824,263.4v82.5h-30.9v-168h33.6l83.5,122.5c0,0-0.5-19.7-0.5-39.7v-82.8h30.9v168h-31.9L1823.6,222
			C1823.6,222,1824,243.4,1824,263.4z"/>
		<path class="st0" d="M2074.8,177.9v26.3h-72.1v41.6h67.9v26.1h-67.9v47.7h74v26.3h-105.7v-168H2074.8z"/>
		<path class="st0" d="M2132.4,277.7v68.2h-31.7v-168h54.1c17.8,0,31.9,3.9,42.4,11.9c10.5,8,18,20.9,18,37c0,29-15.8,40.7-36.3,47
			l45.3,72.1h-37l-39.7-68.2H2132.4z M2172.9,247.6c6.3-4.6,9.7-10.2,9.7-19.7c0-9.3-3.4-15.3-9.7-19.7c-6.1-4.6-13.9-5.4-24.1-5.4
			h-16.6v50.2h16.6C2159,252.9,2166.8,252.2,2172.9,247.6z"/>
		<path class="st0" d="M2314.5,253.4h71.1v67.4c-5.8,5.6-27.5,28-72.6,28c-47.7,0-87.2-30.2-87.2-86.7c0-54.1,39.4-86.7,86.7-86.7
			c43.3,0,62.8,23.1,68.7,29.2l-21.2,18.7c-8.5-9.7-22.9-21.2-47.5-21.2c-30.7,0-54.1,21.9-54.1,59.7c0,37.7,24.1,59.7,55.3,59.7
			c30.9,0,41.1-12.7,41.1-12.7V278h-40.4V253.4z"/>
		<path class="st0" d="M2386.3,177.9h35.1l39.2,72.1l39-72.1h35.1l-58.4,98.9v69.1h-31.7v-69.1L2386.3,177.9z"/>
	</g>
	<g>
		<path class="st0" d="M741.9,432.4V621h-54.4V432.4h-59.7v-43h173.8v43H741.9z"/>
		<path class="st0" d="M962.3,621l-16.4-46.6h-82.6L846.9,621h-56.4l87.2-231.9h56.4l87.2,231.9H962.3z M904.6,448.8L875.8,532h57.7
			L904.6,448.8z"/>
		<path class="st0" d="M1122.2,625c-33.6,0-63.4-17.5-82.2-34.9l26.8-39.6c16.8,17.4,42.6,29.2,60.4,29.2c17.4,0,30.9-8.4,30.9-23.8
			c0-15.8-17.1-21.8-27.2-25.5c-10.1-3.7-27.5-9.7-35.2-13.1c-5.7-2.7-17.5-7-27.5-16.8c-10.1-9.4-18.1-22.8-18.1-44.6
			c0-22.1,10.7-39.6,24.2-50.7c13.1-11.1,34.2-18.5,61.1-18.5c26.8,0,57.7,12.8,73.5,28.5l-23.2,37.9
			c-13.4-13.4-34.2-23.5-51.7-23.5c-17.5,0-30.2,6.7-30.2,20.8c0,14.1,13.1,19.5,23.5,23.5c10.1,4,27.2,10.1,34.6,13.1
			c29.5,10.7,50.3,29.9,50.3,63.4C1212.1,600.5,1167.2,625,1122.2,625z"/>
		<path class="st0" d="M1385.2,621l-58.1-96.6l-18.5,20.5V621h-54V389.4h54V474l71.5-84.6h64.4l-81.5,92.3l87.2,139.3H1385.2z"/>
		<path class="st0" d="M1533.3,432.7v56.7h85.2v43.3h-85.2V621h-54V389.4h144.6v43.3H1533.3z"/>
		<path class="st0" d="M1773.9,625c-68.8,0-122.8-44.6-122.8-119.5s54-119.8,122.8-119.8s122.8,45,122.8,119.8
			S1842.7,625,1773.9,625z M1773.9,432c-38.6,0-67.8,27.9-67.8,72.1c0,44.3,29.2,72.5,67.8,72.5s67.8-28.2,67.8-72.5
			C1841.7,460.2,1812.5,432,1773.9,432z"/>
		<path class="st0" d="M2059.8,621l-48.7-88.6h-17.1V621h-54.4V389.4h83.2c44.3,0,86.6,18.8,86.6,69.5c0,44-28.2,61.1-45.3,66.4
			l58.7,95.6H2059.8z M2015.2,431.4h-21.5v59.4h21.5c20.1,0,39.6-6,39.6-29.9C2054.8,436.7,2035.3,431.4,2015.2,431.4z"/>
		<path class="st0" d="M2261,625c-68.1,0-121.5-45-121.5-119.5c0-74.8,54-119.5,121.5-119.5c47.7,0,73.5,19.8,79.5,26.2l-16.8,45
			c-4.4-5.7-29.2-24.2-59.7-24.2c-39.3,0-69.5,26.2-69.5,71.5c0,45.3,31.5,71.1,69.5,71.1c28.9,0,49.7-11.4,62.4-24.5l18.1,42.3
			C2332.9,605.5,2308.4,625,2261,625z"/>
		<path class="st0" d="M2381.5,621V389.4h150v43.3h-96V480h90.6v43.3h-90.6V577h99v44H2381.5z"/>
	</g>
</g>
<g id="Ident">
	
		<linearGradient id="SVGID_1_" gradientUnits="userSpaceOnUse" x1="213.7982" y1="1124.5051" x2="219.1518" y2="1582.999" gradientTransform="matrix(1.0602 0 0 -1.0602 54.4999 1750.9656)">
		<stop  offset="0" style="stop-color:#008B80"/>
		<stop  offset="1" style="stop-color:#19B5FE"/>
	</linearGradient>
	<path class="st1" d="M282.4,50c37.8,0,232.5,271.1,232.5,399.5S410.8,681.9,282.4,681.9S50,577.9,50,449.5S244.6,50,282.4,50
		L282.4,50z"/>
	
		<linearGradient id="SVGID_00000164494498789602361400000009380470799723915919_" gradientUnits="userSpaceOnUse" x1="226.8857" y1="1024.2948" x2="-46.4837" y2="1531.2223" gradientTransform="matrix(1.0602 0 0 -1.0602 54.4999 1750.9656)">
		<stop  offset="0" style="stop-color:#27CBC0"/>
		<stop  offset="1" style="stop-color:#ECF955"/>
	</linearGradient>
	<path style="fill-rule:evenodd;clip-rule:evenodd;fill:url(#SVGID_00000164494498789602361400000009380470799723915919_);" d="
		M406,634.5c0-264.5-298.5-127.1-290.1-372.1C78.6,330.2,50,400.3,50,449.5c0,12.8,1,25.3,3,37.6c18,110.5,113.8,194.9,229.4,194.9
		c15.4,0,30.4-1.5,44.9-4.3c-56.5-8.3-234.6-56.7-187.5-241.7c66,109,281.7,16.8,231.1,314.1c0,0,29.2-43.8,34.8-103.4
		C405.9,642.6,406,638.6,406,634.5L406,634.5z"/>
	<defs>
		<filter id="Adobe_OpacityMaskFilter" filterUnits="userSpaceOnUse" x="52.8" y="262.4" width="225" height="186.9">
			<feColorMatrix  type="matrix" values="1 0 0 0 0  0 1 0 0 0  0 0 1 0 0  0 0 0 1 0"/>
		</filter>
	</defs>
	<mask maskUnits="userSpaceOnUse" x="52.8" y="262.4" width="225" height="186.9" id="id0_1_">
		
			<linearGradient id="SVGID_00000183209852211829892040000000665030309209254072_" gradientUnits="userSpaceOnUse" x1="110.0525" y1="1324.1226" x2="63.6917" y2="1255.0044" gradientTransform="matrix(1.0602 0 0 -1.0602 54.4999 1750.9656)">
			<stop  offset="0" style="stop-color:#FFFFFF"/>
			<stop  offset="1" style="stop-color:#FFFFFF;stop-opacity:0"/>
		</linearGradient>
		
			<rect x="52.8" y="262.4" style="fill-rule:evenodd;clip-rule:evenodd;fill:url(#SVGID_00000183209852211829892040000000665030309209254072_);filter:url(#Adobe_OpacityMaskFilter);" width="225" height="186.9"/>
	</mask>
	<path class="st4" d="M277.8,449.3c-79.8-33.4-166.5-53.3-161.9-186.9c-30.4,55.2-55,112-63.1,157.8c10.4-42.5,32.7-92.4,59.6-141.1
		C108.4,395.2,190.5,430.2,277.8,449.3L277.8,449.3z"/>
	
		<linearGradient id="SVGID_00000183251199606825794140000015320145509762339736_" gradientUnits="userSpaceOnUse" x1="119.3613" y1="1224.2186" x2="333.8538" y2="871.1527" gradientTransform="matrix(1.0602 0 0 -1.0602 54.4999 1750.9656)">
		<stop  offset="0" style="stop-color:#FFFFFF"/>
		<stop  offset="1" style="stop-color:#37DBD0"/>
	</linearGradient>
	<path style="fill-rule:evenodd;clip-rule:evenodd;fill:url(#SVGID_00000183251199606825794140000015320145509762339736_);" d="
		M378.4,661.3c-5-189.9-180.3-129.1-238.6-225.4c-47.1,185,131,233.5,187.5,241.7l0,0l0,0c0.7,0,46.4,3.5,47.6,44.5
		C377.8,699.4,378.8,679.2,378.4,661.3L378.4,661.3z"/>
	<defs>
		
			<filter id="Adobe_OpacityMaskFilter_00000137099240092330043320000017338020282645568695_" filterUnits="userSpaceOnUse" x="243.5" y="565.1" width="130.8" height="150.2">
			<feColorMatrix  type="matrix" values="1 0 0 0 0  0 1 0 0 0  0 0 1 0 0  0 0 0 1 0"/>
		</filter>
	</defs>
	<mask maskUnits="userSpaceOnUse" x="243.5" y="565.1" width="130.8" height="150.2" id="id2_1_">
		
			<linearGradient id="SVGID_00000003102056425080671770000014401828621651696554_" gradientUnits="userSpaceOnUse" x1="378.3836" y1="853.5411" x2="152.4359" y2="1170.3586" gradientTransform="matrix(1.0602 0 0 -1.0602 54.4999 1750.9656)">
			<stop  offset="0" style="stop-color:#FFFFFF"/>
			<stop  offset="1" style="stop-color:#FFFFFF;stop-opacity:0"/>
		</linearGradient>
		
			<rect x="243.5" y="565.1" style="fill-rule:evenodd;clip-rule:evenodd;fill:url(#SVGID_00000003102056425080671770000014401828621651696554_);filter:url(#Adobe_OpacityMaskFilter_00000137099240092330043320000017338020282645568695_);" width="130.8" height="150.2"/>
	</mask>
	<path class="st7" d="M243.5,565.1c89.4,110.8,3.3,88.9,3.3,88.9c31.7,14.1,62.4,20.9,80.6,23.6c0,0,0,0,0,0c0.6,0,41.1,3.1,47,37.7
		c-2.1-17.8-6.6-33.3-13.1-47C337.7,618.4,289.2,592.3,243.5,565.1L243.5,565.1z"/>
	<defs>
		
			<filter id="Adobe_OpacityMaskFilter_00000151504861601495798820000012947964459178233021_" filterUnits="userSpaceOnUse" x="129.3" y="561" width="198" height="120.9">
			<feColorMatrix  type="matrix" values="1 0 0 0 0  0 1 0 0 0  0 0 1 0 0  0 0 0 1 0"/>
		</filter>
	</defs>
	<mask maskUnits="userSpaceOnUse" x="129.3" y="561" width="198" height="120.9" id="id4_1_">
		
			<linearGradient id="SVGID_00000116955026960207851790000007265066576211801267_" gradientUnits="userSpaceOnUse" x1="128.4768" y1="908.6895" x2="196.81" y2="1210.501" gradientTransform="matrix(1.0602 0 0 -1.0602 54.4999 1750.9656)">
			<stop  offset="0" style="stop-color:#FFFFFF"/>
			<stop  offset="1" style="stop-color:#FFFFFF;stop-opacity:0"/>
		</linearGradient>
		
			<rect x="129.3" y="561" style="fill-rule:evenodd;clip-rule:evenodd;fill:url(#SVGID_00000116955026960207851790000007265066576211801267_);filter:url(#Adobe_OpacityMaskFilter_00000151504861601495798820000012947964459178233021_);" width="198" height="120.9"/>
	</mask>
	<path class="st9" d="M207.2,647.7c-38.2-5.2-64.5-16.4-77.9-23.4c40.9,35.9,94.5,57.6,153.1,57.6c15.4,0,30.4-1.5,44.9-4.3
		c-40.7-6-144.6-32.8-181.9-116.6C158.9,622.2,207.2,647.7,207.2,647.7z"/>
	<defs>
		
			<filter id="Adobe_OpacityMaskFilter_00000178899278640705672230000015984267001414091938_" filterUnits="userSpaceOnUse" x="349.7" y="562.7" width="56.3" height="187.3">
			<feColorMatrix  type="matrix" values="1 0 0 0 0  0 1 0 0 0  0 0 1 0 0  0 0 0 1 0"/>
		</filter>
	</defs>
	<mask maskUnits="userSpaceOnUse" x="349.7" y="562.7" width="56.3" height="187.3" id="id6_1_">
		
			<linearGradient id="SVGID_00000057121415688650099290000018059980204021321857_" gradientUnits="userSpaceOnUse" x1="269.747" y1="876.7045" x2="338.0802" y2="1178.516" gradientTransform="matrix(1.0602 0 0 -1.0602 54.4999 1750.9656)">
			<stop  offset="0" style="stop-color:#FFFFFF"/>
			<stop  offset="1" style="stop-color:#FFFFFF;stop-opacity:0"/>
		</linearGradient>
		
			<rect x="349.7" y="562.7" style="fill-rule:evenodd;clip-rule:evenodd;fill:url(#SVGID_00000057121415688650099290000018059980204021321857_);filter:url(#Adobe_OpacityMaskFilter_00000178899278640705672230000015984267001414091938_);" width="56.3" height="187.3"/>
	</mask>
	<path class="st11" d="M349.7,562.7c25.8,34.6,37.7,90.1,21.1,187.3c0,0,29.2-43.8,34.8-103.4c0.2-4,0.4-8.1,0.4-12.1
		c0-26-2.9-48-8.1-67c7.1,31.5-4.3,86.2-4.3,86.2C390.5,615.7,349.7,562.7,349.7,562.7L349.7,562.7z"/>
	<defs>
		
			<filter id="Adobe_OpacityMaskFilter_00000176764263594553972500000005858062905161498289_" filterUnits="userSpaceOnUse" x="115.8" y="262.4" width="399.1" height="384.2">
			<feColorMatrix  type="matrix" values="1 0 0 0 0  0 1 0 0 0  0 0 1 0 0  0 0 0 1 0"/>
		</filter>
	</defs>
	<mask maskUnits="userSpaceOnUse" x="115.8" y="262.4" width="399.1" height="384.2" id="id8_1_">
		
			<linearGradient id="SVGID_00000074434064710411950900000015745620273848075918_" gradientUnits="userSpaceOnUse" x1="387.3843" y1="955.383" x2="153.1579" y2="1398.4418" gradientTransform="matrix(1.0602 0 0 -1.0602 54.4999 1750.9656)">
			<stop  offset="0" style="stop-color:#FFFFFF"/>
			<stop  offset="1" style="stop-color:#FFFFFF;stop-opacity:0"/>
		</linearGradient>
		
			<rect x="115.8" y="262.4" style="fill-rule:evenodd;clip-rule:evenodd;fill:url(#SVGID_00000074434064710411950900000015745620273848075918_);filter:url(#Adobe_OpacityMaskFilter_00000176764263594553972500000005858062905161498289_);" width="399.1" height="384.2"/>
	</mask>
	<path class="st13" d="M338,481c26.9,19.2,48.8,45.6,60,86.5c5.2,19,8.1,41,8.1,67c0,4.1-0.1,8.1-0.4,12.1
		c65.6-41.1,109.2-114,109.2-197.1c0-5.1-0.3-10.5-0.9-16c-7.4,92.4-76.1,131-76.1,131c-1-63.5-40.4-100.8-91.3-129.1
		c-93.5-52.1-225.9-73.9-230.7-173c-3.2,94.8,39.5,132.4,93.1,158.1C251,440.6,299.6,453.6,338,481L338,481z"/>
	<defs>
		
			<filter id="Adobe_OpacityMaskFilter_00000049906968922113085530000018107344406884042135_" filterUnits="userSpaceOnUse" x="427.9" y="378" width="32.8" height="44.6">
			<feColorMatrix  type="matrix" values="1 0 0 0 0  0 1 0 0 0  0 0 1 0 0  0 0 0 1 0"/>
		</filter>
	</defs>
	<mask maskUnits="userSpaceOnUse" x="427.9" y="378" width="32.8" height="44.6" id="id10_1_">
		
			<linearGradient id="SVGID_00000116938075572480470990000004612319080822304646_" gradientUnits="userSpaceOnUse" x1="361.4702" y1="1261.3322" x2="375.8874" y2="1290.5469" gradientTransform="matrix(1.0602 0 0 -1.0602 54.4999 1750.9656)">
			<stop  offset="0" style="stop-color:#FFFFFF"/>
			<stop  offset="1" style="stop-color:#FFFFFF;stop-opacity:0"/>
		</linearGradient>
		
			<rect x="427.9" y="378" style="fill-rule:evenodd;clip-rule:evenodd;fill:url(#SVGID_00000116938075572480470990000004612319080822304646_);filter:url(#Adobe_OpacityMaskFilter_00000049906968922113085530000018107344406884042135_);" width="32.8" height="44.6"/>
	</mask>
	<path class="st15" d="M444.3,378c2.7,0,16.4,19.1,16.4,28.2s-7.3,16.4-16.4,16.4c-9.1,0-16.4-7.3-16.4-16.4S441.6,378,444.3,378z"
		/>
	
		<linearGradient id="SVGID_00000026140898319355236680000009378416848156806830_" gradientUnits="userSpaceOnUse" x1="366.2623" y1="1298.8442" x2="366.2623" y2="1256.776" gradientTransform="matrix(1.0602 0 0 -1.0602 54.4999 1750.9656)">
		<stop  offset="0" style="stop-color:#004790"/>
		<stop  offset="1" style="stop-color:#19B5FE"/>
	</linearGradient>
	<path style="fill-rule:evenodd;clip-rule:evenodd;fill:url(#SVGID_00000026140898319355236680000009378416848156806830_);" d="
		M442.8,373.9c2.7,0,16.4,19.1,16.4,28.2c0,9.1-7.3,16.4-16.4,16.4c-9.1,0-16.4-7.3-16.4-16.4C426.4,393,440.2,373.9,442.8,373.9z"
		/>
	<defs>
		
			<filter id="Adobe_OpacityMaskFilter_00000111170802664839101790000006871826229123334836_" filterUnits="userSpaceOnUse" x="432.4" y="394.7" width="20.9" height="17.8">
			<feColorMatrix  type="matrix" values="1 0 0 0 0  0 1 0 0 0  0 0 1 0 0  0 0 0 1 0"/>
		</filter>
	</defs>
	<mask maskUnits="userSpaceOnUse" x="432.4" y="394.7" width="20.9" height="17.8" id="id12_1_">
		
			<linearGradient id="SVGID_00000152945470346343770380000000747582321428571822_" gradientUnits="userSpaceOnUse" x1="367.2271" y1="1324.4454" x2="366.0067" y2="1256.7806" gradientTransform="matrix(1.0602 0 0 -1.0602 54.4999 1750.9656)">
			<stop  offset="0" style="stop-color:#FFFFFF"/>
			<stop  offset="1" style="stop-color:#FFFFFF;stop-opacity:0"/>
		</linearGradient>
		
			<rect x="432.4" y="394.7" style="fill-rule:evenodd;clip-rule:evenodd;fill:url(#SVGID_00000152945470346343770380000000747582321428571822_);filter:url(#Adobe_OpacityMaskFilter_00000111170802664839101790000006871826229123334836_);" width="20.9" height="17.8"/>
	</mask>
	<path class="st18" d="M434.7,394.7c-1.2,2.6-2.4,5.5-2.4,7.3c0,5.8,4.7,10.5,10.5,10.5c5.8,0,10.4-4.7,10.4-10.5
		c0-1.9-1.1-4.8-2.4-7.3c-2.4,1.2-5.2,1.9-8.1,1.9C439.9,396.6,437.2,396,434.7,394.7L434.7,394.7z"/>
	<defs>
		
			<filter id="Adobe_OpacityMaskFilter_00000075870924987700085270000007523947835175746206_" filterUnits="userSpaceOnUse" x="84.7" y="487.9" width="28.4" height="38.6">
			<feColorMatrix  type="matrix" values="1 0 0 0 0  0 1 0 0 0  0 0 1 0 0  0 0 0 1 0"/>
		</filter>
	</defs>
	<mask maskUnits="userSpaceOnUse" x="84.7" y="487.9" width="28.4" height="38.6" id="id14_1_">
		
			<linearGradient id="SVGID_00000073689817906761426300000008502065335216468414_" gradientUnits="userSpaceOnUse" x1="36.5445" y1="1162.2235" x2="49.024" y2="1187.5073" gradientTransform="matrix(1.0602 0 0 -1.0602 54.4999 1750.9656)">
			<stop  offset="0" style="stop-color:#FFFFFF"/>
			<stop  offset="1" style="stop-color:#FFFFFF;stop-opacity:0"/>
		</linearGradient>
		
			<rect x="84.7" y="487.9" style="fill-rule:evenodd;clip-rule:evenodd;fill:url(#SVGID_00000073689817906761426300000008502065335216468414_);filter:url(#Adobe_OpacityMaskFilter_00000075870924987700085270000007523947835175746206_);" width="28.4" height="38.6"/>
	</mask>
	<path class="st20" d="M98.9,487.9c2.3,0,14.2,16.6,14.2,24.4s-6.4,14.2-14.2,14.2c-7.8,0-14.2-6.4-14.2-14.2
		C84.7,504.5,96.6,487.9,98.9,487.9z"/>
	
		<linearGradient id="SVGID_00000160161192061206861020000013090195036134224257_" gradientUnits="userSpaceOnUse" x1="39.6904" y1="1191.0514" x2="41.9717" y2="1146.6836" gradientTransform="matrix(1.0602 0 0 -1.0602 54.4999 1750.9656)">
		<stop  offset="0" style="stop-color:#07ABA0"/>
		<stop  offset="1" style="stop-color:#ECF955"/>
	</linearGradient>
	<path style="fill-rule:evenodd;clip-rule:evenodd;fill:url(#SVGID_00000160161192061206861020000013090195036134224257_);" d="
		M97.6,484.3c2.3,0,14.2,16.6,14.2,24.4s-6.4,14.2-14.2,14.2c-7.8,0-14.2-6.4-14.2-14.2C83.4,500.9,95.3,484.3,97.6,484.3z"/>
	<defs>
		
			<filter id="Adobe_OpacityMaskFilter_00000115504040663344648710000011466527282905773221_" filterUnits="userSpaceOnUse" x="88.6" y="502.4" width="18.1" height="15.4">
			<feColorMatrix  type="matrix" values="1 0 0 0 0  0 1 0 0 0  0 0 1 0 0  0 0 0 1 0"/>
		</filter>
	</defs>
	<mask maskUnits="userSpaceOnUse" x="88.6" y="502.4" width="18.1" height="15.4" id="id16_1_">
		
			<linearGradient id="SVGID_00000175302173758511005270000008704543494654918806_" gradientUnits="userSpaceOnUse" x1="41.5274" y1="1216.8459" x2="40.4726" y2="1158.2816" gradientTransform="matrix(1.0602 0 0 -1.0602 54.4999 1750.9656)">
			<stop  offset="0" style="stop-color:#FFFFFF"/>
			<stop  offset="1" style="stop-color:#FFFFFF;stop-opacity:0"/>
		</linearGradient>
		
			<rect x="88.6" y="502.4" style="fill-rule:evenodd;clip-rule:evenodd;fill:url(#SVGID_00000175302173758511005270000008704543494654918806_);filter:url(#Adobe_OpacityMaskFilter_00000115504040663344648710000011466527282905773221_);" width="18.1" height="15.4"/>
	</mask>
	<path class="st23" d="M90.6,502.4c-1.1,2.2-2.1,4.7-2.1,6.3c0,5,4.1,9,9,9c5,0,9.1-4.1,9.1-9c0-1.6-1-4.1-2.1-6.3
		c-2.1,1-4.5,1.6-7,1.6S92.8,503.4,90.6,502.4z"/>
	<defs>
		
			<filter id="Adobe_OpacityMaskFilter_00000043426653987985502910000001675587135951180956_" filterUnits="userSpaceOnUse" x="357.6" y="552.3" width="17.9" height="24.3">
			<feColorMatrix  type="matrix" values="1 0 0 0 0  0 1 0 0 0  0 0 1 0 0  0 0 0 1 0"/>
		</filter>
	</defs>
	<mask maskUnits="userSpaceOnUse" x="357.6" y="552.3" width="17.9" height="24.3" id="id18_1_">
		
			<linearGradient id="SVGID_00000074430612063272030880000000795986487058232208_" gradientUnits="userSpaceOnUse" x1="290.926" y1="1112.2351" x2="298.7877" y2="1128.167" gradientTransform="matrix(1.0602 0 0 -1.0602 54.4999 1750.9656)">
			<stop  offset="0" style="stop-color:#FFFFFF"/>
			<stop  offset="1" style="stop-color:#FFFFFF;stop-opacity:0"/>
		</linearGradient>
		
			<rect x="357.6" y="552.3" style="fill-rule:evenodd;clip-rule:evenodd;fill:url(#SVGID_00000074430612063272030880000000795986487058232208_);filter:url(#Adobe_OpacityMaskFilter_00000043426653987985502910000001675587135951180956_);" width="17.9" height="24.3"/>
	</mask>
	<path class="st25" d="M366.5,552.3c1.5,0,8.9,10.4,8.9,15.4c0,4.9-4,8.9-8.9,8.9c-4.9,0-8.9-4-8.9-8.9
		C357.6,562.7,365.1,552.3,366.5,552.3z"/>
	
		<linearGradient id="SVGID_00000073692065004142479190000013119564466183618703_" gradientUnits="userSpaceOnUse" x1="292.9031" y1="1130.3999" x2="294.3442" y2="1102.4546" gradientTransform="matrix(1.0602 0 0 -1.0602 54.4999 1750.9656)">
		<stop  offset="0" style="stop-color:#07ABA0"/>
		<stop  offset="1" style="stop-color:#ECF955"/>
	</linearGradient>
	<path style="fill-rule:evenodd;clip-rule:evenodd;fill:url(#SVGID_00000073692065004142479190000013119564466183618703_);" d="
		M365.7,550c1.5,0,8.9,10.4,8.9,15.4c0,4.9-4,8.9-8.9,8.9c-4.9,0-8.9-4-8.9-8.9C356.8,560.5,364.3,550,365.7,550z"/>
	<defs>
		
			<filter id="Adobe_OpacityMaskFilter_00000016756305581552910750000014905463921700647356_" filterUnits="userSpaceOnUse" x="360" y="561.4" width="11.4" height="9.7">
			<feColorMatrix  type="matrix" values="1 0 0 0 0  0 1 0 0 0  0 0 1 0 0  0 0 0 1 0"/>
		</filter>
	</defs>
	<mask maskUnits="userSpaceOnUse" x="360" y="561.4" width="11.4" height="9.7" id="id20_1_">
		
			<linearGradient id="SVGID_00000088850209254385615860000003424514072810970522_" gradientUnits="userSpaceOnUse" x1="294.0686" y1="1146.647" x2="293.4001" y2="1109.7607" gradientTransform="matrix(1.0602 0 0 -1.0602 54.4999 1750.9656)">
			<stop  offset="0" style="stop-color:#FFFFFF"/>
			<stop  offset="1" style="stop-color:#FFFFFF;stop-opacity:0"/>
		</linearGradient>
		
			<rect x="360" y="561.4" style="fill-rule:evenodd;clip-rule:evenodd;fill:url(#SVGID_00000088850209254385615860000003424514072810970522_);filter:url(#Adobe_OpacityMaskFilter_00000016756305581552910750000014905463921700647356_);" width="11.4" height="9.7"/>
	</mask>
	<path class="st28" d="M361.3,561.4c-0.7,1.4-1.3,3-1.3,4c0,3.1,2.5,5.7,5.7,5.7s5.7-2.5,5.7-5.7c0-1-0.6-2.6-1.3-4
		c-1.3,0.7-2.8,1-4.4,1S362.6,562.1,361.3,561.4z"/>
	<defs>
		
			<filter id="Adobe_OpacityMaskFilter_00000052801676916324765500000016349145834850938752_" filterUnits="userSpaceOnUse" x="200.6" y="50" width="314.3" height="631.9">
			<feColorMatrix  type="matrix" values="1 0 0 0 0  0 1 0 0 0  0 0 1 0 0  0 0 0 1 0"/>
		</filter>
	</defs>
	<mask maskUnits="userSpaceOnUse" x="200.6" y="50" width="314.3" height="631.9" id="id22_1_">
		
			<linearGradient id="SVGID_00000112594948570561191970000008452259902666199217_" gradientUnits="userSpaceOnUse" x1="189.4236" y1="1806.4064" x2="318.5042" y2="1138.24" gradientTransform="matrix(1.0602 0 0 -1.0602 54.4999 1750.9656)">
			<stop  offset="0" style="stop-color:#FFFFFF"/>
			<stop  offset="1" style="stop-color:#FFFFFF;stop-opacity:0"/>
		</linearGradient>
		
			<rect x="200.6" y="50" style="fill-rule:evenodd;clip-rule:evenodd;fill:url(#SVGID_00000112594948570561191970000008452259902666199217_);filter:url(#Adobe_OpacityMaskFilter_00000052801676916324765500000016349145834850938752_);" width="314.3" height="631.9"/>
	</mask>
	<path class="st30" d="M282.4,50c37.8,0,232.5,271.1,232.5,399.5S410.8,681.9,282.4,681.9c-28.8,0-56.4-5.3-81.8-14.8
		C481.5,505.1,282.4,50,282.4,50L282.4,50z"/>
	<defs>
		
			<filter id="Adobe_OpacityMaskFilter_00000018214712824114418180000016335805052524000169_" filterUnits="userSpaceOnUse" x="181.5" y="50" width="316.9" height="320">
			<feColorMatrix  type="matrix" values="1 0 0 0 0  0 1 0 0 0  0 0 1 0 0  0 0 0 1 0"/>
		</filter>
	</defs>
	<mask maskUnits="userSpaceOnUse" x="181.5" y="50" width="316.9" height="320" id="id24_1_">
		
			<linearGradient id="SVGID_00000010995645962831981070000003294502358810075811_" gradientUnits="userSpaceOnUse" x1="18.3842" y1="1678.676" x2="371.4502" y2="1361.6747" gradientTransform="matrix(1.0602 0 0 -1.0602 54.4999 1750.9656)">
			<stop  offset="0" style="stop-color:#FFFFFF"/>
			<stop  offset="1" style="stop-color:#FFFFFF;stop-opacity:0"/>
		</linearGradient>
		
			<rect x="181.5" y="50" style="fill-rule:evenodd;clip-rule:evenodd;fill:url(#SVGID_00000010995645962831981070000003294502358810075811_);filter:url(#Adobe_OpacityMaskFilter_00000018214712824114418180000016335805052524000169_);" width="316.9" height="320"/>
	</mask>
	<path class="st32" d="M282.4,50c31.1,0,168.3,183.4,216,320c-2.5-5-80.2-159.5-316.9-212.4C225.4,95.3,267,50,282.4,50L282.4,50z"
		/>
	<defs>
		
			<filter id="Adobe_OpacityMaskFilter_00000004544019843289378110000012857492416051042188_" filterUnits="userSpaceOnUse" x="50" y="262.4" width="159" height="276.4">
			<feColorMatrix  type="matrix" values="1 0 0 0 0  0 1 0 0 0  0 0 1 0 0  0 0 0 1 0"/>
		</filter>
	</defs>
	<mask maskUnits="userSpaceOnUse" x="50" y="262.4" width="159" height="276.4" id="id26_1_">
		
			<linearGradient id="SVGID_00000064320156054228673220000004613536963660852141_" gradientUnits="userSpaceOnUse" x1="25.9927" y1="1458.1331" x2="81.0431" y2="1231.2961" gradientTransform="matrix(1.0602 0 0 -1.0602 54.4999 1750.9656)">
			<stop  offset="0" style="stop-color:#FFFFFF"/>
			<stop  offset="1" style="stop-color:#FFFFFF;stop-opacity:0"/>
		</linearGradient>
		
			<rect x="50" y="262.4" style="fill-rule:evenodd;clip-rule:evenodd;fill:url(#SVGID_00000064320156054228673220000004613536963660852141_);filter:url(#Adobe_OpacityMaskFilter_00000004544019843289378110000012857492416051042188_);" width="159" height="276.4"/>
	</mask>
	<path class="st34" d="M67.7,538.7c0,0-21.3-86,34.1-186.6c0,0,14.2,56.3,107.2,68.4c-53.6-25.7-96.3-63.3-93.1-158.1
		C78.6,330.2,50,400.3,50,449.5C50,481.1,56.3,511.3,67.7,538.7z"/>
</g>
</svg>
