<?xml version="1.0" encoding="UTF-8"?><svg id="Layer_2" xmlns="http://www.w3.org/2000/svg" viewBox="0 0 50 50"><defs><style>.cls-1{fill:#fff;stroke-width:0px;}</style></defs><g id="Layer_1-2"><path class="cls-1" d="M25,31.6V12.73c-.53.05-1.06.13-1.6.16h-15.34c-.85,0-1.54.69-1.54,1.55v.64H1.56c-.86,0-1.56.7-1.56,1.57v9.96c0,.87.7,1.57,1.56,1.57h4.96v1.73c0,.85.69,1.55,1.54,1.55h.93l6.19,16.57c.38.99,1.23,1.71,2.27,1.92.21.04.41.06.62.06.82,0,1.6-.33,2.17-.92l3.7-3.68c.95-.95,1.17-2.43.57-3.58l-5.17-10.38h4.09c.53.02,1.05.11,1.58.16Z"/><path class="cls-1" d="M49.75.75c-.03-.05-.06-.1-.1-.15-.17-.22-.39-.4-.65-.5,0,0-.02-.02-.02-.02-.03,0-.06,0-.09,0-.14-.04-.28-.09-.43-.09-.11,0-.2.04-.3.06-.06.01-.11.02-.17.03-.27.09-.5.24-.68.44-.01.01-.03.02-.04.03-4.84,5.9-11.59,9.85-18.99,11.3v19.93c7.39,1.45,14.15,5.39,18.99,11.29.01.02.03.02.05.04.11.12.24.22.39.3.05.03.08.07.13.09.2.08.41.14.63.14.18,0,.35-.03.52-.09,0,0,.02-.02.02-.02.26-.1.48-.28.65-.5.04-.05.07-.09.1-.15.15-.24.25-.51.25-.8V1.56c0-.3-.11-.56-.25-.8Z"/></g></svg>