<?xml version="1.0" encoding="UTF-8"?><svg id="Layer_2" xmlns="http://www.w3.org/2000/svg" viewBox="0 0 46.6 50"><defs><style>.cls-1{fill:#0b8cac;stroke-width:0px;}</style></defs><g id="Layer_1-2"><path class="cls-1" d="M41.38,34.8c-3.02-2.58-6.09-4.15-9.07-1.57l-1.78,1.56c-1.3,1.13-3.73,6.42-13.1-4.36-9.37-10.77-3.79-12.44-2.49-13.56l1.79-1.56c2.97-2.59,1.85-5.84-.29-9.19l-1.29-2.03C13,.75,10.66-1.45,7.68,1.13l-1.61,1.4C4.76,3.49,1.09,6.61.19,12.53c-1.07,7.1,2.31,15.23,10.07,24.15,7.75,8.92,15.33,13.41,22.52,13.33,5.97-.06,9.58-3.27,10.7-4.43l1.61-1.41c2.97-2.58,1.12-5.21-1.9-7.8l-1.82-1.56Z"/></g></svg>