<?xml version="1.0" encoding="UTF-8"?><svg id="Layer_2" xmlns="http://www.w3.org/2000/svg" viewBox="0 0 37.86 50"><defs><style>.cls-1{fill:#fff;stroke-width:0px;}</style></defs><g id="Layer_1-2"><path class="cls-1" d="M27.34,3.73h-3.69c-.46-.01-.86-.32-.97-.76C22.34,1.2,20.72-.06,18.87,0c-1.86-.03-3.47,1.25-3.82,3.03-.12.42-.52.71-.97.69h-3.56v6.31h16.83V3.73Z"/><path class="cls-1" d="M37.86,46.99V9.56c0-1.48-1.19-2.68-2.67-2.69-.07,0-.14,0-.2,0h-5.54s0,2.96,0,2.96c0,.69-.56,1.25-1.25,1.25H9.67c-.69,0-1.25-.56-1.25-1.25v-2.96H2.87C1.4,6.77.12,7.88,0,9.36c0,.07,0,.14,0,.2v37.44c-.04,1.62,1.25,2.97,2.87,3.01h32.12c1.62-.04,2.91-1.38,2.87-3,0,0,0,0,0,0ZM13.47,38.88l-5.14,4.81c-.16.2-.4.32-.66.33-.28-.01-.54-.13-.72-.33l-2.7-2.77c-.36-.4-.33-1.02.07-1.38.38-.38,1-.38,1.38,0l1.98,2.11,4.48-4.22c.45-.31,1.06-.2,1.37.25.25.37.23.86-.06,1.2ZM13.47,28.35h0l-5.14,4.81c-.16.2-.4.32-.66.33-.28-.01-.54-.13-.72-.33l-2.7-2.77c-.36-.4-.33-1.02.07-1.38.38-.38,1-.38,1.38,0l1.98,2.11,4.48-4.22c.45-.31,1.06-.2,1.37.25.25.37.23.86-.06,1.2ZM13.47,17.81l-5.14,4.81c-.16.2-.4.32-.66.33-.28-.01-.54-.13-.72-.33l-2.7-2.77c-.36-.4-.33-1.02.07-1.38.38-.38,1-.38,1.38,0l1.98,2.11,4.48-4.22c.45-.31,1.06-.2,1.37.25.25.37.23.86-.06,1.2ZM33.12,42.64h-16.13c-.58,0-1.05-.47-1.05-1.05s.47-1.05,1.05-1.05h16.13c.58,0,1.05.47,1.05,1.05s-.47,1.05-1.05,1.05ZM33.12,32.12h-16.13c-.58,0-1.05-.47-1.05-1.05s.47-1.05,1.05-1.05h16.13c.58,0,1.05.47,1.05,1.05,0,.58-.47,1.05-1.05,1.05ZM33.12,21.6h-16.13c-.58,0-1.05-.47-1.05-1.05s.47-1.05,1.05-1.05h16.13c.58,0,1.05.47,1.05,1.05,0,.58-.47,1.05-1.05,1.05Z"/></g></svg>